<mxfile host="app.diagrams.net" agent="Mozilla/5.0 (Windows NT 10.0; Win64; x64) AppleWebKit/537.36 (KHTML, like Gecko) Chrome/134.0.0.0 Safari/537.36" version="26.1.0">
  <diagram id="C5RBs43oDa-KdzZeNtuy" name="Page-1">
    <mxGraphModel dx="1122" dy="704" grid="1" gridSize="10" guides="1" tooltips="1" connect="1" arrows="1" fold="1" page="1" pageScale="1" pageWidth="827" pageHeight="1169" math="0" shadow="0">
      <root>
        <mxCell id="WIyWlLk6GJQsqaUBKTNV-0" />
        <mxCell id="WIyWlLk6GJQsqaUBKTNV-1" parent="WIyWlLk6GJQsqaUBKTNV-0" />
        <mxCell id="zR9XDZu5yqTnwQgSl-2T-11" style="edgeStyle=orthogonalEdgeStyle;rounded=0;orthogonalLoop=1;jettySize=auto;html=1;exitX=0.5;exitY=1;exitDx=0;exitDy=0;entryX=0.5;entryY=0;entryDx=0;entryDy=0;" edge="1" parent="WIyWlLk6GJQsqaUBKTNV-1" source="WIyWlLk6GJQsqaUBKTNV-3" target="zR9XDZu5yqTnwQgSl-2T-0">
          <mxGeometry relative="1" as="geometry" />
        </mxCell>
        <mxCell id="WIyWlLk6GJQsqaUBKTNV-3" value="Read CLAs" style="rounded=1;whiteSpace=wrap;html=1;fontSize=12;glass=0;strokeWidth=1;shadow=0;" parent="WIyWlLk6GJQsqaUBKTNV-1" vertex="1">
          <mxGeometry x="170" y="110" width="120" height="40" as="geometry" />
        </mxCell>
        <mxCell id="WIyWlLk6GJQsqaUBKTNV-5" value="Yes" style="edgeStyle=orthogonalEdgeStyle;rounded=0;html=1;jettySize=auto;orthogonalLoop=1;fontSize=11;endArrow=block;endFill=0;endSize=8;strokeWidth=1;shadow=0;labelBackgroundColor=none;" parent="WIyWlLk6GJQsqaUBKTNV-1" source="WIyWlLk6GJQsqaUBKTNV-6" target="WIyWlLk6GJQsqaUBKTNV-7" edge="1">
          <mxGeometry y="10" relative="1" as="geometry">
            <mxPoint as="offset" />
            <Array as="points">
              <mxPoint x="613.5" y="420" />
              <mxPoint x="613.5" y="420" />
            </Array>
          </mxGeometry>
        </mxCell>
        <mxCell id="zR9XDZu5yqTnwQgSl-2T-19" style="edgeStyle=orthogonalEdgeStyle;rounded=0;orthogonalLoop=1;jettySize=auto;html=1;exitX=0.5;exitY=1;exitDx=0;exitDy=0;entryX=0.5;entryY=0;entryDx=0;entryDy=0;" edge="1" parent="WIyWlLk6GJQsqaUBKTNV-1" source="WIyWlLk6GJQsqaUBKTNV-6">
          <mxGeometry relative="1" as="geometry">
            <mxPoint x="422.5" y="490" as="targetPoint" />
          </mxGeometry>
        </mxCell>
        <mxCell id="WIyWlLk6GJQsqaUBKTNV-6" value="If per-process flag" style="rhombus;whiteSpace=wrap;html=1;shadow=0;fontFamily=Helvetica;fontSize=12;align=center;strokeWidth=1;spacing=6;spacingTop=-4;" parent="WIyWlLk6GJQsqaUBKTNV-1" vertex="1">
          <mxGeometry x="357.5" y="380" width="130" height="80" as="geometry" />
        </mxCell>
        <mxCell id="WIyWlLk6GJQsqaUBKTNV-7" value="Print Process FD Table" style="rounded=1;whiteSpace=wrap;html=1;fontSize=12;glass=0;strokeWidth=1;shadow=0;" parent="WIyWlLk6GJQsqaUBKTNV-1" vertex="1">
          <mxGeometry x="578.5" y="400" width="125" height="40" as="geometry" />
        </mxCell>
        <mxCell id="WIyWlLk6GJQsqaUBKTNV-9" value="Yes" style="edgeStyle=orthogonalEdgeStyle;rounded=0;html=1;jettySize=auto;orthogonalLoop=1;fontSize=11;endArrow=block;endFill=0;endSize=8;strokeWidth=1;shadow=0;labelBackgroundColor=none;" parent="WIyWlLk6GJQsqaUBKTNV-1" target="WIyWlLk6GJQsqaUBKTNV-12" edge="1">
          <mxGeometry x="0.014" y="10" relative="1" as="geometry">
            <mxPoint as="offset" />
            <mxPoint x="472.5" y="530" as="sourcePoint" />
          </mxGeometry>
        </mxCell>
        <mxCell id="WIyWlLk6GJQsqaUBKTNV-12" value="Print System-wide FD Table" style="rounded=1;whiteSpace=wrap;html=1;fontSize=12;glass=0;strokeWidth=1;shadow=0;" parent="WIyWlLk6GJQsqaUBKTNV-1" vertex="1">
          <mxGeometry x="578.5" y="510" width="120" height="40" as="geometry" />
        </mxCell>
        <mxCell id="zR9XDZu5yqTnwQgSl-2T-12" style="edgeStyle=orthogonalEdgeStyle;rounded=0;orthogonalLoop=1;jettySize=auto;html=1;exitX=0.5;exitY=1;exitDx=0;exitDy=0;entryX=0.5;entryY=0;entryDx=0;entryDy=0;" edge="1" parent="WIyWlLk6GJQsqaUBKTNV-1" source="zR9XDZu5yqTnwQgSl-2T-0" target="zR9XDZu5yqTnwQgSl-2T-1">
          <mxGeometry relative="1" as="geometry" />
        </mxCell>
        <mxCell id="zR9XDZu5yqTnwQgSl-2T-0" value="Parse CLAs" style="rounded=1;whiteSpace=wrap;html=1;fontSize=12;glass=0;strokeWidth=1;shadow=0;" vertex="1" parent="WIyWlLk6GJQsqaUBKTNV-1">
          <mxGeometry x="170" y="180" width="120" height="40" as="geometry" />
        </mxCell>
        <mxCell id="zR9XDZu5yqTnwQgSl-2T-1" value="Valid CLAs?" style="rhombus;whiteSpace=wrap;html=1;shadow=0;fontFamily=Helvetica;fontSize=12;align=center;strokeWidth=1;spacing=6;spacingTop=-4;" vertex="1" parent="WIyWlLk6GJQsqaUBKTNV-1">
          <mxGeometry x="180" y="240" width="100" height="80" as="geometry" />
        </mxCell>
        <mxCell id="zR9XDZu5yqTnwQgSl-2T-10" style="edgeStyle=orthogonalEdgeStyle;rounded=0;orthogonalLoop=1;jettySize=auto;html=1;exitX=0.5;exitY=1;exitDx=0;exitDy=0;entryX=0.5;entryY=0;entryDx=0;entryDy=0;" edge="1" parent="WIyWlLk6GJQsqaUBKTNV-1" source="zR9XDZu5yqTnwQgSl-2T-5" target="WIyWlLk6GJQsqaUBKTNV-3">
          <mxGeometry relative="1" as="geometry" />
        </mxCell>
        <mxCell id="zR9XDZu5yqTnwQgSl-2T-5" value="Start" style="ellipse;whiteSpace=wrap;html=1;" vertex="1" parent="WIyWlLk6GJQsqaUBKTNV-1">
          <mxGeometry x="170" y="30" width="120" height="60" as="geometry" />
        </mxCell>
        <mxCell id="zR9XDZu5yqTnwQgSl-2T-77" style="edgeStyle=orthogonalEdgeStyle;rounded=0;orthogonalLoop=1;jettySize=auto;html=1;exitX=0.5;exitY=0;exitDx=0;exitDy=0;entryX=1;entryY=0.5;entryDx=0;entryDy=0;" edge="1" parent="WIyWlLk6GJQsqaUBKTNV-1" source="zR9XDZu5yqTnwQgSl-2T-7" target="zR9XDZu5yqTnwQgSl-2T-5">
          <mxGeometry relative="1" as="geometry" />
        </mxCell>
        <mxCell id="zR9XDZu5yqTnwQgSl-2T-7" value="Terminate" style="ellipse;whiteSpace=wrap;html=1;" vertex="1" parent="WIyWlLk6GJQsqaUBKTNV-1">
          <mxGeometry x="390" y="150" width="120" height="60" as="geometry" />
        </mxCell>
        <mxCell id="zR9XDZu5yqTnwQgSl-2T-13" value="" style="rounded=0;html=1;jettySize=auto;orthogonalLoop=1;fontSize=11;endArrow=block;endFill=0;endSize=8;strokeWidth=1;shadow=0;labelBackgroundColor=none;edgeStyle=orthogonalEdgeStyle;entryX=0.5;entryY=0;entryDx=0;entryDy=0;" edge="1" parent="WIyWlLk6GJQsqaUBKTNV-1" source="zR9XDZu5yqTnwQgSl-2T-1" target="zR9XDZu5yqTnwQgSl-2T-81">
          <mxGeometry relative="1" as="geometry">
            <mxPoint x="210" y="320.0000000000001" as="sourcePoint" />
            <mxPoint x="210" y="370" as="targetPoint" />
            <Array as="points" />
          </mxGeometry>
        </mxCell>
        <mxCell id="zR9XDZu5yqTnwQgSl-2T-14" value="Yes" style="edgeLabel;html=1;align=center;verticalAlign=middle;resizable=0;points=[];" vertex="1" connectable="0" parent="zR9XDZu5yqTnwQgSl-2T-13">
          <mxGeometry x="-0.0141" y="-1" relative="1" as="geometry">
            <mxPoint x="21" y="-6" as="offset" />
          </mxGeometry>
        </mxCell>
        <mxCell id="zR9XDZu5yqTnwQgSl-2T-16" value="" style="shape=cylinder3;whiteSpace=wrap;html=1;boundedLbl=1;backgroundOutline=1;size=15;" vertex="1" parent="WIyWlLk6GJQsqaUBKTNV-1">
          <mxGeometry x="10" y="510.71000000000004" width="50" height="80" as="geometry" />
        </mxCell>
        <mxCell id="zR9XDZu5yqTnwQgSl-2T-17" value="" style="shape=flexArrow;endArrow=classic;html=1;rounded=0;" edge="1" parent="WIyWlLk6GJQsqaUBKTNV-1">
          <mxGeometry width="50" height="50" relative="1" as="geometry">
            <mxPoint x="70" y="550.49" as="sourcePoint" />
            <mxPoint x="120" y="550.49" as="targetPoint" />
          </mxGeometry>
        </mxCell>
        <mxCell id="zR9XDZu5yqTnwQgSl-2T-22" value="&lt;span style=&quot;color: rgb(0, 0, 0); font-family: Helvetica; font-size: 12px; font-style: normal; font-variant-ligatures: normal; font-variant-caps: normal; font-weight: 400; letter-spacing: normal; orphans: 2; text-align: center; text-indent: 0px; text-transform: none; widows: 2; word-spacing: 0px; -webkit-text-stroke-width: 0px; white-space: normal; background-color: rgb(251, 251, 251); text-decoration-thickness: initial; text-decoration-style: initial; text-decoration-color: initial; float: none; display: inline !important;&quot;&gt;Repeat until all processes&amp;nbsp;&lt;/span&gt;&lt;div&gt;&lt;span style=&quot;color: rgb(0, 0, 0); font-family: Helvetica; font-size: 12px; font-style: normal; font-variant-ligatures: normal; font-variant-caps: normal; font-weight: 400; letter-spacing: normal; orphans: 2; text-align: center; text-indent: 0px; text-transform: none; widows: 2; word-spacing: 0px; -webkit-text-stroke-width: 0px; white-space: normal; background-color: rgb(251, 251, 251); text-decoration-thickness: initial; text-decoration-style: initial; text-decoration-color: initial; float: none; display: inline !important;&quot;&gt;have been found in /proc&lt;/span&gt;&lt;br&gt;&lt;/div&gt;" style="rhombus;whiteSpace=wrap;html=1;" vertex="1" parent="WIyWlLk6GJQsqaUBKTNV-1">
          <mxGeometry x="145" y="500.71000000000004" width="170" height="100" as="geometry" />
        </mxCell>
        <mxCell id="zR9XDZu5yqTnwQgSl-2T-26" style="edgeStyle=orthogonalEdgeStyle;rounded=0;orthogonalLoop=1;jettySize=auto;html=1;exitX=0.5;exitY=1;exitDx=0;exitDy=0;entryX=0.5;entryY=0;entryDx=0;entryDy=0;" edge="1" parent="WIyWlLk6GJQsqaUBKTNV-1" source="zR9XDZu5yqTnwQgSl-2T-23" target="zR9XDZu5yqTnwQgSl-2T-25">
          <mxGeometry relative="1" as="geometry" />
        </mxCell>
        <mxCell id="zR9XDZu5yqTnwQgSl-2T-23" value="Get PID" style="rounded=1;whiteSpace=wrap;html=1;" vertex="1" parent="WIyWlLk6GJQsqaUBKTNV-1">
          <mxGeometry x="185" y="640.71" width="90" height="40" as="geometry" />
        </mxCell>
        <mxCell id="zR9XDZu5yqTnwQgSl-2T-25" value="Repeat until all FD of&amp;nbsp;&lt;div&gt;this PID have been found&lt;/div&gt;" style="rhombus;whiteSpace=wrap;html=1;" vertex="1" parent="WIyWlLk6GJQsqaUBKTNV-1">
          <mxGeometry x="137.5" y="705.71" width="185" height="90" as="geometry" />
        </mxCell>
        <mxCell id="zR9XDZu5yqTnwQgSl-2T-35" style="edgeStyle=orthogonalEdgeStyle;rounded=0;orthogonalLoop=1;jettySize=auto;html=1;exitX=0.5;exitY=1;exitDx=0;exitDy=0;entryX=0.5;entryY=0;entryDx=0;entryDy=0;" edge="1" parent="WIyWlLk6GJQsqaUBKTNV-1" source="zR9XDZu5yqTnwQgSl-2T-31" target="zR9XDZu5yqTnwQgSl-2T-32">
          <mxGeometry relative="1" as="geometry" />
        </mxCell>
        <mxCell id="zR9XDZu5yqTnwQgSl-2T-31" value="Get FD number" style="rounded=1;whiteSpace=wrap;html=1;" vertex="1" parent="WIyWlLk6GJQsqaUBKTNV-1">
          <mxGeometry x="185" y="840.71" width="90" height="40" as="geometry" />
        </mxCell>
        <mxCell id="zR9XDZu5yqTnwQgSl-2T-36" style="edgeStyle=orthogonalEdgeStyle;rounded=0;orthogonalLoop=1;jettySize=auto;html=1;exitX=0.5;exitY=1;exitDx=0;exitDy=0;entryX=0.5;entryY=0;entryDx=0;entryDy=0;" edge="1" parent="WIyWlLk6GJQsqaUBKTNV-1" source="zR9XDZu5yqTnwQgSl-2T-32" target="zR9XDZu5yqTnwQgSl-2T-33">
          <mxGeometry relative="1" as="geometry" />
        </mxCell>
        <mxCell id="zR9XDZu5yqTnwQgSl-2T-32" value="Get File Name" style="rounded=1;whiteSpace=wrap;html=1;" vertex="1" parent="WIyWlLk6GJQsqaUBKTNV-1">
          <mxGeometry x="185" y="900.71" width="90" height="40" as="geometry" />
        </mxCell>
        <mxCell id="zR9XDZu5yqTnwQgSl-2T-38" style="edgeStyle=orthogonalEdgeStyle;rounded=0;orthogonalLoop=1;jettySize=auto;html=1;exitX=1;exitY=0.5;exitDx=0;exitDy=0;entryX=1;entryY=0.5;entryDx=0;entryDy=0;" edge="1" parent="WIyWlLk6GJQsqaUBKTNV-1" source="zR9XDZu5yqTnwQgSl-2T-33" target="zR9XDZu5yqTnwQgSl-2T-25">
          <mxGeometry relative="1" as="geometry">
            <Array as="points">
              <mxPoint x="340" y="980.71" />
              <mxPoint x="340" y="750.71" />
            </Array>
          </mxGeometry>
        </mxCell>
        <mxCell id="zR9XDZu5yqTnwQgSl-2T-33" value="Get Inode" style="rounded=1;whiteSpace=wrap;html=1;" vertex="1" parent="WIyWlLk6GJQsqaUBKTNV-1">
          <mxGeometry x="185" y="960.71" width="90" height="40" as="geometry" />
        </mxCell>
        <mxCell id="zR9XDZu5yqTnwQgSl-2T-39" value="No" style="rounded=0;html=1;jettySize=auto;orthogonalLoop=1;fontSize=11;endArrow=block;endFill=0;endSize=8;strokeWidth=1;shadow=0;labelBackgroundColor=none;edgeStyle=orthogonalEdgeStyle;exitX=0.5;exitY=1;exitDx=0;exitDy=0;entryX=0.5;entryY=0;entryDx=0;entryDy=0;" edge="1" parent="WIyWlLk6GJQsqaUBKTNV-1" source="zR9XDZu5yqTnwQgSl-2T-25" target="zR9XDZu5yqTnwQgSl-2T-31">
          <mxGeometry x="0.1111" y="20" relative="1" as="geometry">
            <mxPoint as="offset" />
            <mxPoint x="220" y="800.71" as="sourcePoint" />
            <mxPoint x="220" y="860.71" as="targetPoint" />
          </mxGeometry>
        </mxCell>
        <mxCell id="zR9XDZu5yqTnwQgSl-2T-40" value="Yes" style="rounded=0;html=1;jettySize=auto;orthogonalLoop=1;fontSize=11;endArrow=block;endFill=0;endSize=8;strokeWidth=1;shadow=0;labelBackgroundColor=none;edgeStyle=orthogonalEdgeStyle;entryX=0;entryY=0.5;entryDx=0;entryDy=0;exitX=0;exitY=0.5;exitDx=0;exitDy=0;" edge="1" parent="WIyWlLk6GJQsqaUBKTNV-1" source="zR9XDZu5yqTnwQgSl-2T-25" target="zR9XDZu5yqTnwQgSl-2T-22">
          <mxGeometry x="-0.0303" y="18" relative="1" as="geometry">
            <mxPoint as="offset" />
            <mxPoint x="100" y="670.71" as="sourcePoint" />
            <mxPoint x="100" y="730.71" as="targetPoint" />
            <Array as="points">
              <mxPoint x="130" y="750.71" />
              <mxPoint x="130" y="550.71" />
            </Array>
          </mxGeometry>
        </mxCell>
        <mxCell id="zR9XDZu5yqTnwQgSl-2T-41" value="No" style="rounded=0;html=1;jettySize=auto;orthogonalLoop=1;fontSize=11;endArrow=block;endFill=0;endSize=8;strokeWidth=1;shadow=0;labelBackgroundColor=none;edgeStyle=orthogonalEdgeStyle;exitX=0.5;exitY=1;exitDx=0;exitDy=0;" edge="1" parent="WIyWlLk6GJQsqaUBKTNV-1" source="zR9XDZu5yqTnwQgSl-2T-22">
          <mxGeometry x="0.0127" y="19" relative="1" as="geometry">
            <mxPoint as="offset" />
            <mxPoint x="310" y="630.71" as="sourcePoint" />
            <mxPoint x="230" y="640.71" as="targetPoint" />
          </mxGeometry>
        </mxCell>
        <mxCell id="zR9XDZu5yqTnwQgSl-2T-42" value="Yes" style="rounded=0;html=1;jettySize=auto;orthogonalLoop=1;fontSize=11;endArrow=block;endFill=0;endSize=8;strokeWidth=1;shadow=0;labelBackgroundColor=none;edgeStyle=orthogonalEdgeStyle;exitX=1;exitY=0.5;exitDx=0;exitDy=0;entryX=0;entryY=0.5;entryDx=0;entryDy=0;" edge="1" parent="WIyWlLk6GJQsqaUBKTNV-1" source="zR9XDZu5yqTnwQgSl-2T-22" target="WIyWlLk6GJQsqaUBKTNV-6">
          <mxGeometry x="-0.3674" y="10" relative="1" as="geometry">
            <mxPoint as="offset" />
            <mxPoint x="330" y="429.99999999999994" as="sourcePoint" />
            <mxPoint x="383.4" y="480.68" as="targetPoint" />
          </mxGeometry>
        </mxCell>
        <mxCell id="zR9XDZu5yqTnwQgSl-2T-56" style="edgeStyle=orthogonalEdgeStyle;rounded=0;orthogonalLoop=1;jettySize=auto;html=1;exitX=0.5;exitY=1;exitDx=0;exitDy=0;entryX=0.5;entryY=0;entryDx=0;entryDy=0;" edge="1" parent="WIyWlLk6GJQsqaUBKTNV-1" source="zR9XDZu5yqTnwQgSl-2T-43" target="zR9XDZu5yqTnwQgSl-2T-46">
          <mxGeometry relative="1" as="geometry" />
        </mxCell>
        <mxCell id="zR9XDZu5yqTnwQgSl-2T-43" value="If systemWide flag" style="rhombus;whiteSpace=wrap;html=1;shadow=0;fontFamily=Helvetica;fontSize=12;align=center;strokeWidth=1;spacing=6;spacingTop=-4;" vertex="1" parent="WIyWlLk6GJQsqaUBKTNV-1">
          <mxGeometry x="357.5" y="490" width="130" height="80" as="geometry" />
        </mxCell>
        <mxCell id="zR9XDZu5yqTnwQgSl-2T-44" value="Yes" style="edgeStyle=orthogonalEdgeStyle;rounded=0;html=1;jettySize=auto;orthogonalLoop=1;fontSize=11;endArrow=block;endFill=0;endSize=8;strokeWidth=1;shadow=0;labelBackgroundColor=none;" edge="1" target="zR9XDZu5yqTnwQgSl-2T-45" parent="WIyWlLk6GJQsqaUBKTNV-1">
          <mxGeometry x="0.014" y="10" relative="1" as="geometry">
            <mxPoint as="offset" />
            <mxPoint x="472.5" y="630" as="sourcePoint" />
          </mxGeometry>
        </mxCell>
        <mxCell id="zR9XDZu5yqTnwQgSl-2T-45" value="Print System-wide FD Table" style="rounded=1;whiteSpace=wrap;html=1;fontSize=12;glass=0;strokeWidth=1;shadow=0;" vertex="1" parent="WIyWlLk6GJQsqaUBKTNV-1">
          <mxGeometry x="578.5" y="610" width="120" height="40" as="geometry" />
        </mxCell>
        <mxCell id="zR9XDZu5yqTnwQgSl-2T-57" style="edgeStyle=orthogonalEdgeStyle;rounded=0;orthogonalLoop=1;jettySize=auto;html=1;exitX=0.5;exitY=1;exitDx=0;exitDy=0;entryX=0.5;entryY=0;entryDx=0;entryDy=0;" edge="1" parent="WIyWlLk6GJQsqaUBKTNV-1" source="zR9XDZu5yqTnwQgSl-2T-46" target="zR9XDZu5yqTnwQgSl-2T-49">
          <mxGeometry relative="1" as="geometry" />
        </mxCell>
        <mxCell id="zR9XDZu5yqTnwQgSl-2T-46" value="If systemWide flag" style="rhombus;whiteSpace=wrap;html=1;shadow=0;fontFamily=Helvetica;fontSize=12;align=center;strokeWidth=1;spacing=6;spacingTop=-4;" vertex="1" parent="WIyWlLk6GJQsqaUBKTNV-1">
          <mxGeometry x="357.5" y="590" width="130" height="80" as="geometry" />
        </mxCell>
        <mxCell id="zR9XDZu5yqTnwQgSl-2T-47" value="Yes" style="edgeStyle=orthogonalEdgeStyle;rounded=0;html=1;jettySize=auto;orthogonalLoop=1;fontSize=11;endArrow=block;endFill=0;endSize=8;strokeWidth=1;shadow=0;labelBackgroundColor=none;" edge="1" target="zR9XDZu5yqTnwQgSl-2T-48" parent="WIyWlLk6GJQsqaUBKTNV-1">
          <mxGeometry x="0.014" y="10" relative="1" as="geometry">
            <mxPoint as="offset" />
            <mxPoint x="472.5" y="730" as="sourcePoint" />
          </mxGeometry>
        </mxCell>
        <mxCell id="zR9XDZu5yqTnwQgSl-2T-48" value="Print Vnodes FD Table" style="rounded=1;whiteSpace=wrap;html=1;fontSize=12;glass=0;strokeWidth=1;shadow=0;" vertex="1" parent="WIyWlLk6GJQsqaUBKTNV-1">
          <mxGeometry x="578.5" y="710" width="135" height="40" as="geometry" />
        </mxCell>
        <mxCell id="zR9XDZu5yqTnwQgSl-2T-58" style="edgeStyle=orthogonalEdgeStyle;rounded=0;orthogonalLoop=1;jettySize=auto;html=1;exitX=0.5;exitY=1;exitDx=0;exitDy=0;entryX=0.5;entryY=0;entryDx=0;entryDy=0;" edge="1" parent="WIyWlLk6GJQsqaUBKTNV-1" source="zR9XDZu5yqTnwQgSl-2T-49" target="zR9XDZu5yqTnwQgSl-2T-52">
          <mxGeometry relative="1" as="geometry" />
        </mxCell>
        <mxCell id="zR9XDZu5yqTnwQgSl-2T-49" value="If Vnodes flag" style="rhombus;whiteSpace=wrap;html=1;shadow=0;fontFamily=Helvetica;fontSize=12;align=center;strokeWidth=1;spacing=6;spacingTop=-4;" vertex="1" parent="WIyWlLk6GJQsqaUBKTNV-1">
          <mxGeometry x="357.5" y="690" width="130" height="80" as="geometry" />
        </mxCell>
        <mxCell id="zR9XDZu5yqTnwQgSl-2T-50" value="Yes" style="edgeStyle=orthogonalEdgeStyle;rounded=0;html=1;jettySize=auto;orthogonalLoop=1;fontSize=11;endArrow=block;endFill=0;endSize=8;strokeWidth=1;shadow=0;labelBackgroundColor=none;" edge="1" target="zR9XDZu5yqTnwQgSl-2T-51" parent="WIyWlLk6GJQsqaUBKTNV-1">
          <mxGeometry x="0.014" y="10" relative="1" as="geometry">
            <mxPoint as="offset" />
            <mxPoint x="472.5" y="830" as="sourcePoint" />
          </mxGeometry>
        </mxCell>
        <mxCell id="zR9XDZu5yqTnwQgSl-2T-51" value="Print composite FD Table" style="rounded=1;whiteSpace=wrap;html=1;fontSize=12;glass=0;strokeWidth=1;shadow=0;" vertex="1" parent="WIyWlLk6GJQsqaUBKTNV-1">
          <mxGeometry x="578.5" y="810" width="145" height="40" as="geometry" />
        </mxCell>
        <mxCell id="zR9XDZu5yqTnwQgSl-2T-59" style="edgeStyle=orthogonalEdgeStyle;rounded=0;orthogonalLoop=1;jettySize=auto;html=1;exitX=0.5;exitY=1;exitDx=0;exitDy=0;entryX=0.5;entryY=0;entryDx=0;entryDy=0;" edge="1" parent="WIyWlLk6GJQsqaUBKTNV-1" source="zR9XDZu5yqTnwQgSl-2T-52" target="zR9XDZu5yqTnwQgSl-2T-55">
          <mxGeometry relative="1" as="geometry" />
        </mxCell>
        <mxCell id="zR9XDZu5yqTnwQgSl-2T-52" value="If composite flag" style="rhombus;whiteSpace=wrap;html=1;shadow=0;fontFamily=Helvetica;fontSize=12;align=center;strokeWidth=1;spacing=6;spacingTop=-4;" vertex="1" parent="WIyWlLk6GJQsqaUBKTNV-1">
          <mxGeometry x="357.5" y="790" width="130" height="80" as="geometry" />
        </mxCell>
        <mxCell id="zR9XDZu5yqTnwQgSl-2T-53" value="Yes" style="edgeStyle=orthogonalEdgeStyle;rounded=0;html=1;jettySize=auto;orthogonalLoop=1;fontSize=11;endArrow=block;endFill=0;endSize=8;strokeWidth=1;shadow=0;labelBackgroundColor=none;" edge="1" target="zR9XDZu5yqTnwQgSl-2T-54" parent="WIyWlLk6GJQsqaUBKTNV-1">
          <mxGeometry x="0.014" y="10" relative="1" as="geometry">
            <mxPoint as="offset" />
            <mxPoint x="472.5" y="930" as="sourcePoint" />
          </mxGeometry>
        </mxCell>
        <mxCell id="zR9XDZu5yqTnwQgSl-2T-54" value="Print Summary Table" style="rounded=1;whiteSpace=wrap;html=1;fontSize=12;glass=0;strokeWidth=1;shadow=0;" vertex="1" parent="WIyWlLk6GJQsqaUBKTNV-1">
          <mxGeometry x="578.5" y="910" width="120" height="40" as="geometry" />
        </mxCell>
        <mxCell id="zR9XDZu5yqTnwQgSl-2T-70" style="edgeStyle=orthogonalEdgeStyle;rounded=0;orthogonalLoop=1;jettySize=auto;html=1;exitX=0.5;exitY=1;exitDx=0;exitDy=0;entryX=0.5;entryY=0;entryDx=0;entryDy=0;" edge="1" parent="WIyWlLk6GJQsqaUBKTNV-1" source="zR9XDZu5yqTnwQgSl-2T-55" target="zR9XDZu5yqTnwQgSl-2T-69">
          <mxGeometry relative="1" as="geometry" />
        </mxCell>
        <mxCell id="zR9XDZu5yqTnwQgSl-2T-55" value="If summary flag" style="rhombus;whiteSpace=wrap;html=1;shadow=0;fontFamily=Helvetica;fontSize=12;align=center;strokeWidth=1;spacing=6;spacingTop=-4;" vertex="1" parent="WIyWlLk6GJQsqaUBKTNV-1">
          <mxGeometry x="357.5" y="890" width="130" height="80" as="geometry" />
        </mxCell>
        <mxCell id="zR9XDZu5yqTnwQgSl-2T-67" value="Yes" style="edgeStyle=orthogonalEdgeStyle;rounded=0;html=1;jettySize=auto;orthogonalLoop=1;fontSize=11;endArrow=block;endFill=0;endSize=8;strokeWidth=1;shadow=0;labelBackgroundColor=none;" edge="1" target="zR9XDZu5yqTnwQgSl-2T-68" parent="WIyWlLk6GJQsqaUBKTNV-1">
          <mxGeometry x="0.014" y="10" relative="1" as="geometry">
            <mxPoint as="offset" />
            <mxPoint x="472.5" y="1030" as="sourcePoint" />
          </mxGeometry>
        </mxCell>
        <mxCell id="zR9XDZu5yqTnwQgSl-2T-72" style="edgeStyle=orthogonalEdgeStyle;rounded=0;orthogonalLoop=1;jettySize=auto;html=1;exitX=0.5;exitY=1;exitDx=0;exitDy=0;entryX=0.5;entryY=0;entryDx=0;entryDy=0;" edge="1" parent="WIyWlLk6GJQsqaUBKTNV-1" source="zR9XDZu5yqTnwQgSl-2T-68" target="zR9XDZu5yqTnwQgSl-2T-71">
          <mxGeometry relative="1" as="geometry" />
        </mxCell>
        <mxCell id="zR9XDZu5yqTnwQgSl-2T-68" value="Read flag argument value" style="rounded=1;whiteSpace=wrap;html=1;fontSize=12;glass=0;strokeWidth=1;shadow=0;" vertex="1" parent="WIyWlLk6GJQsqaUBKTNV-1">
          <mxGeometry x="578.5" y="1010" width="145" height="40" as="geometry" />
        </mxCell>
        <mxCell id="zR9XDZu5yqTnwQgSl-2T-75" style="edgeStyle=orthogonalEdgeStyle;rounded=0;orthogonalLoop=1;jettySize=auto;html=1;exitX=0.5;exitY=1;exitDx=0;exitDy=0;entryX=0.5;entryY=0;entryDx=0;entryDy=0;" edge="1" parent="WIyWlLk6GJQsqaUBKTNV-1" source="zR9XDZu5yqTnwQgSl-2T-69" target="zR9XDZu5yqTnwQgSl-2T-73">
          <mxGeometry relative="1" as="geometry" />
        </mxCell>
        <mxCell id="zR9XDZu5yqTnwQgSl-2T-69" value="If threshold flag" style="rhombus;whiteSpace=wrap;html=1;shadow=0;fontFamily=Helvetica;fontSize=12;align=center;strokeWidth=1;spacing=6;spacingTop=-4;" vertex="1" parent="WIyWlLk6GJQsqaUBKTNV-1">
          <mxGeometry x="357.5" y="990" width="130" height="80" as="geometry" />
        </mxCell>
        <mxCell id="zR9XDZu5yqTnwQgSl-2T-71" value="Print Threshold Table" style="rounded=1;whiteSpace=wrap;html=1;fontSize=12;glass=0;strokeWidth=1;shadow=0;" vertex="1" parent="WIyWlLk6GJQsqaUBKTNV-1">
          <mxGeometry x="578.5" y="1070" width="145" height="40" as="geometry" />
        </mxCell>
        <mxCell id="zR9XDZu5yqTnwQgSl-2T-76" style="edgeStyle=orthogonalEdgeStyle;rounded=0;orthogonalLoop=1;jettySize=auto;html=1;exitX=0.5;exitY=1;exitDx=0;exitDy=0;entryX=1;entryY=0.5;entryDx=0;entryDy=0;" edge="1" parent="WIyWlLk6GJQsqaUBKTNV-1" source="zR9XDZu5yqTnwQgSl-2T-73" target="zR9XDZu5yqTnwQgSl-2T-7">
          <mxGeometry relative="1" as="geometry">
            <Array as="points">
              <mxPoint x="423" y="1150" />
              <mxPoint x="770" y="1150" />
              <mxPoint x="770" y="180" />
            </Array>
          </mxGeometry>
        </mxCell>
        <mxCell id="zR9XDZu5yqTnwQgSl-2T-73" value="Free all allocated memory" style="rounded=1;whiteSpace=wrap;html=1;fontSize=12;glass=0;strokeWidth=1;shadow=0;" vertex="1" parent="WIyWlLk6GJQsqaUBKTNV-1">
          <mxGeometry x="350" y="1090" width="145" height="40" as="geometry" />
        </mxCell>
        <mxCell id="zR9XDZu5yqTnwQgSl-2T-78" value="No" style="rounded=0;html=1;jettySize=auto;orthogonalLoop=1;fontSize=11;endArrow=block;endFill=0;endSize=8;strokeWidth=1;shadow=0;labelBackgroundColor=none;edgeStyle=orthogonalEdgeStyle;exitX=1.026;exitY=0.5;exitDx=0;exitDy=0;entryX=0;entryY=0.5;entryDx=0;entryDy=0;exitPerimeter=0;" edge="1" parent="WIyWlLk6GJQsqaUBKTNV-1" source="zR9XDZu5yqTnwQgSl-2T-1" target="zR9XDZu5yqTnwQgSl-2T-7">
          <mxGeometry x="0.1656" y="10" relative="1" as="geometry">
            <mxPoint as="offset" />
            <mxPoint x="310" y="275" as="sourcePoint" />
            <mxPoint x="310" y="320" as="targetPoint" />
          </mxGeometry>
        </mxCell>
        <mxCell id="zR9XDZu5yqTnwQgSl-2T-79" value="" style="shape=cylinder3;whiteSpace=wrap;html=1;boundedLbl=1;backgroundOutline=1;size=15;" vertex="1" parent="WIyWlLk6GJQsqaUBKTNV-1">
          <mxGeometry x="10" y="710.71" width="50" height="80" as="geometry" />
        </mxCell>
        <mxCell id="zR9XDZu5yqTnwQgSl-2T-80" value="" style="shape=flexArrow;endArrow=classic;html=1;rounded=0;" edge="1" parent="WIyWlLk6GJQsqaUBKTNV-1">
          <mxGeometry width="50" height="50" relative="1" as="geometry">
            <mxPoint x="70" y="750.49" as="sourcePoint" />
            <mxPoint x="120" y="750.49" as="targetPoint" />
          </mxGeometry>
        </mxCell>
        <mxCell id="zR9XDZu5yqTnwQgSl-2T-81" value="/proc directory opened?" style="rhombus;whiteSpace=wrap;html=1;" vertex="1" parent="WIyWlLk6GJQsqaUBKTNV-1">
          <mxGeometry x="150" y="350" width="160" height="60" as="geometry" />
        </mxCell>
        <mxCell id="zR9XDZu5yqTnwQgSl-2T-82" value="" style="rounded=0;html=1;jettySize=auto;orthogonalLoop=1;fontSize=11;endArrow=block;endFill=0;endSize=8;strokeWidth=1;shadow=0;labelBackgroundColor=none;edgeStyle=orthogonalEdgeStyle;exitX=0.5;exitY=1;exitDx=0;exitDy=0;entryX=0.5;entryY=0;entryDx=0;entryDy=0;" edge="1" parent="WIyWlLk6GJQsqaUBKTNV-1" source="zR9XDZu5yqTnwQgSl-2T-81" target="zR9XDZu5yqTnwQgSl-2T-22">
          <mxGeometry relative="1" as="geometry">
            <mxPoint x="200" y="439.29" as="sourcePoint" />
            <mxPoint x="200.28" y="510.00000000000006" as="targetPoint" />
            <Array as="points" />
          </mxGeometry>
        </mxCell>
        <mxCell id="zR9XDZu5yqTnwQgSl-2T-83" value="Yes" style="edgeLabel;html=1;align=center;verticalAlign=middle;resizable=0;points=[];" vertex="1" connectable="0" parent="zR9XDZu5yqTnwQgSl-2T-82">
          <mxGeometry x="-0.0141" y="-1" relative="1" as="geometry">
            <mxPoint x="21" y="-6" as="offset" />
          </mxGeometry>
        </mxCell>
        <mxCell id="zR9XDZu5yqTnwQgSl-2T-87" value="" style="rounded=0;html=1;jettySize=auto;orthogonalLoop=1;fontSize=11;endArrow=block;endFill=0;endSize=8;strokeWidth=1;shadow=0;labelBackgroundColor=none;edgeStyle=orthogonalEdgeStyle;exitX=0.987;exitY=0.504;exitDx=0;exitDy=0;exitPerimeter=0;entryX=0.5;entryY=1;entryDx=0;entryDy=0;" edge="1" parent="WIyWlLk6GJQsqaUBKTNV-1" source="zR9XDZu5yqTnwQgSl-2T-81" target="zR9XDZu5yqTnwQgSl-2T-7">
          <mxGeometry relative="1" as="geometry">
            <mxPoint x="314.19999999999953" y="380.0000000000001" as="sourcePoint" />
            <mxPoint x="390" y="310" as="targetPoint" />
            <Array as="points">
              <mxPoint x="360" y="380" />
              <mxPoint x="360" y="240" />
              <mxPoint x="450" y="240" />
            </Array>
          </mxGeometry>
        </mxCell>
        <mxCell id="zR9XDZu5yqTnwQgSl-2T-88" value="No" style="edgeLabel;html=1;align=center;verticalAlign=middle;resizable=0;points=[];" vertex="1" connectable="0" parent="zR9XDZu5yqTnwQgSl-2T-87">
          <mxGeometry x="-0.0141" y="-1" relative="1" as="geometry">
            <mxPoint x="9" y="22" as="offset" />
          </mxGeometry>
        </mxCell>
      </root>
    </mxGraphModel>
  </diagram>
</mxfile>
